# xmcd
#
# Track frame offsets:
# 150
# 21651
# 39026
# 60729
# 73479
# 92015
# 105123
# 123405
# 142854
# 156438
#
# Disc length: 2334 seconds
#
#
# Revision: 0
# Processed by: cddbd v1.5.2PL0 Copyright (c) Steve Scherf et al.
# Submitted via: FreeRIP 2.945 
#
DISCID=83091c0a
DTITLE=Ruben V - Lucky Day
DYEAR=2001
DGENRE=Acoustic
TTITLE0=Alone
TTITLE1=Where Do We Go From Here
TTITLE2=Back To My Baby's Arms
TTITLE3=Get Yourself On Board
TTITLE4=Love Sweet Love
TTITLE5=Field Of Blood
TTITLE6=Lucky Day
TTITLE7=Your My World
TTITLE8=When You Know
TTITLE9=Woke Up
EXTD=
EXTT0=
EXTT1=
EXTT2=
EXTT3=
EXTT4=
EXTT5=
EXTT6=
EXTT7=
EXTT8=
EXTT9=
PLAYORDER=
